<svg width="138" height="58" viewBox="0 0 138 58" fill="none" xmlns="http://www.w3.org/2000/svg">
<path d="M77.7336 39.536C77.5416 39.696 77.1816 39.912 76.6536 40.184C76.1416 40.456 75.5096 40.696 74.7576 40.904C74.0056 41.112 73.1736 41.208 72.2616 41.192C70.8696 41.16 69.6216 40.912 68.5176 40.448C67.4296 39.968 66.5016 39.32 65.7336 38.504C64.9816 37.688 64.4056 36.752 64.0056 35.696C63.6056 34.64 63.4056 33.512 63.4056 32.312C63.4056 30.968 63.6056 29.736 64.0056 28.616C64.4216 27.496 65.0056 26.528 65.7576 25.712C66.5256 24.896 67.4376 24.264 68.4936 23.816C69.5496 23.368 70.7176 23.144 71.9976 23.144C73.1816 23.144 74.2296 23.304 75.1416 23.624C76.0536 23.944 76.7976 24.288 77.3736 24.656L76.0056 27.944C75.6056 27.64 75.0696 27.328 74.3976 27.008C73.7416 26.672 72.9816 26.504 72.1176 26.504C71.4456 26.504 70.7976 26.648 70.1736 26.936C69.5656 27.208 69.0216 27.6 68.5416 28.112C68.0776 28.624 67.7096 29.224 67.4376 29.912C67.1656 30.584 67.0296 31.32 67.0296 32.12C67.0296 32.968 67.1496 33.744 67.3896 34.448C67.6456 35.152 68.0056 35.76 68.4696 36.272C68.9336 36.768 69.4856 37.152 70.1256 37.424C70.7816 37.696 71.5176 37.832 72.3336 37.832C73.2776 37.832 74.0856 37.68 74.7576 37.376C75.4296 37.072 75.9416 36.752 76.2936 36.416L77.7336 39.536ZM79.8519 35.624C79.8519 34.552 80.0999 33.592 80.5959 32.744C81.1079 31.896 81.8199 31.232 82.7319 30.752C83.6439 30.256 84.6919 30.008 85.8759 30.008C87.0759 30.008 88.1159 30.256 88.9959 30.752C89.8759 31.232 90.5479 31.896 91.0119 32.744C91.4919 33.592 91.7319 34.552 91.7319 35.624C91.7319 36.696 91.4919 37.664 91.0119 38.528C90.5479 39.376 89.8759 40.048 88.9959 40.544C88.1159 41.04 87.0599 41.288 85.8279 41.288C84.6759 41.288 83.6439 41.064 82.7319 40.616C81.8359 40.168 81.1319 39.52 80.6199 38.672C80.1079 37.824 79.8519 36.808 79.8519 35.624ZM83.2359 35.648C83.2359 36.192 83.3479 36.688 83.5719 37.136C83.7959 37.568 84.0999 37.912 84.4839 38.168C84.8679 38.424 85.2999 38.552 85.7799 38.552C86.3079 38.552 86.7639 38.424 87.1479 38.168C87.5319 37.912 87.8279 37.568 88.0359 37.136C88.2439 36.688 88.3479 36.192 88.3479 35.648C88.3479 35.088 88.2439 34.592 88.0359 34.16C87.8279 33.728 87.5319 33.384 87.1479 33.128C86.7639 32.872 86.3079 32.744 85.7799 32.744C85.2999 32.744 84.8679 32.872 84.4839 33.128C84.0999 33.384 83.7959 33.728 83.5719 34.16C83.3479 34.592 83.2359 35.088 83.2359 35.648ZM95.3869 41V33.44H93.6109V30.464H95.3869V26.816C95.3869 25.44 95.7789 24.32 96.5629 23.456C97.3629 22.576 98.5149 22.136 100.019 22.136C100.467 22.136 100.963 22.208 101.507 22.352C102.067 22.48 102.555 22.696 102.971 23L101.555 25.424C101.395 25.216 101.203 25.08 100.979 25.016C100.771 24.936 100.571 24.896 100.379 24.896C99.8989 24.896 99.5069 25.056 99.2029 25.376C98.8989 25.696 98.7469 26.208 98.7469 26.912V30.464H101.915V33.44H98.7469V41H95.3869ZM103.139 41V33.44H101.363V30.464H103.139V26.816C103.139 25.44 103.531 24.32 104.315 23.456C105.115 22.576 106.267 22.136 107.771 22.136C108.219 22.136 108.715 22.208 109.259 22.352C109.819 22.48 110.307 22.696 110.723 23L109.307 25.424C109.147 25.216 108.955 25.08 108.731 25.016C108.523 24.936 108.323 24.896 108.131 24.896C107.651 24.896 107.259 25.056 106.955 25.376C106.651 25.696 106.499 26.208 106.499 26.912V30.464H109.667V33.44H106.499V41H103.139ZM117.492 41.288C116.212 41.288 115.124 41.048 114.228 40.568C113.348 40.088 112.676 39.424 112.212 38.576C111.748 37.728 111.516 36.752 111.516 35.648C111.516 34.592 111.788 33.64 112.332 32.792C112.876 31.944 113.604 31.272 114.516 30.776C115.428 30.264 116.444 30.008 117.564 30.008C119.068 30.008 120.3 30.448 121.26 31.328C122.236 32.192 122.868 33.448 123.156 35.096L114.996 37.688L114.252 35.864L120.156 33.872L119.46 34.184C119.332 33.768 119.1 33.408 118.764 33.104C118.444 32.784 117.956 32.624 117.3 32.624C116.804 32.624 116.364 32.744 115.98 32.984C115.612 33.208 115.324 33.536 115.116 33.968C114.924 34.384 114.828 34.88 114.828 35.456C114.828 36.112 114.948 36.664 115.188 37.112C115.428 37.544 115.756 37.872 116.172 38.096C116.588 38.32 117.052 38.432 117.564 38.432C117.932 38.432 118.284 38.368 118.62 38.24C118.972 38.112 119.316 37.944 119.652 37.736L121.14 40.232C120.58 40.552 119.972 40.808 119.316 41C118.676 41.192 118.068 41.288 117.492 41.288ZM130.758 41.288C129.478 41.288 128.39 41.048 127.494 40.568C126.614 40.088 125.942 39.424 125.478 38.576C125.014 37.728 124.782 36.752 124.782 35.648C124.782 34.592 125.054 33.64 125.598 32.792C126.142 31.944 126.87 31.272 127.782 30.776C128.694 30.264 129.71 30.008 130.83 30.008C132.334 30.008 133.566 30.448 134.526 31.328C135.502 32.192 136.134 33.448 136.422 35.096L128.262 37.688L127.518 35.864L133.422 33.872L132.726 34.184C132.598 33.768 132.366 33.408 132.03 33.104C131.71 32.784 131.222 32.624 130.566 32.624C130.07 32.624 129.63 32.744 129.246 32.984C128.878 33.208 128.59 33.536 128.382 33.968C128.19 34.384 128.094 34.88 128.094 35.456C128.094 36.112 128.214 36.664 128.454 37.112C128.694 37.544 129.022 37.872 129.438 38.096C129.854 38.32 130.318 38.432 130.83 38.432C131.198 38.432 131.55 38.368 131.886 38.24C132.238 38.112 132.582 37.944 132.918 37.736L134.406 40.232C133.846 40.552 133.238 40.808 132.582 41C131.942 41.192 131.334 41.288 130.758 41.288Z" fill="#FF4B32"/>
<g clip-path="url(#clip0_1_617)" filter="url(#filter0_d_1_617)">
<path d="M50.013 41.8508H42.9161C42.5101 41.8508 42.1811 42.1787 42.1811 42.5832C42.1811 42.9877 42.5101 43.3156 42.9161 43.3156H49.278V43.7288L38.5762 45.7541H17.1239L6.4221 43.7288V43.3156H9.34436C9.34554 43.3156 9.34671 43.3158 9.34779 43.3158C9.34867 43.3158 9.34965 43.3156 9.35053 43.3156H11.9986C11.9995 43.3156 12.0003 43.3158 12.0011 43.3158C12.0025 43.3158 12.004 43.3156 12.0054 43.3156H20.8169C20.8174 43.3156 20.8179 43.3157 20.8185 43.3157C20.819 43.3157 20.8194 43.3156 20.8199 43.3156H23.4457C23.4465 43.3156 23.4473 43.3158 23.448 43.3158C23.4488 43.3158 23.4497 43.3156 23.4505 43.3156H32.2496C32.2505 43.3156 32.2513 43.3158 32.2521 43.3158C32.2529 43.3158 32.2536 43.3156 32.2543 43.3156H40.1868C40.5928 43.3156 40.9217 42.9877 40.9217 42.5832C40.9217 42.1787 40.5928 41.8508 40.1868 41.8508H35.4461C36.3238 41.2949 37.143 40.6439 37.8794 39.9105C38.9424 38.8508 39.8151 37.6521 40.482 36.3562C41.4114 36.7335 42.3955 36.925 43.4158 36.925C47.7203 36.925 51.2222 33.4347 51.2222 29.1447C51.2222 24.8551 47.7203 21.3654 43.4158 21.3654C42.9493 21.3654 42.4871 21.4075 42.033 21.4886V21.0696C42.033 20.1321 41.2677 19.3694 40.327 19.3694H36.851C36.445 19.3694 36.116 19.6973 36.116 20.1018C36.116 20.5063 36.445 20.8342 36.851 20.8342H40.327C40.4571 20.8342 40.5631 20.9398 40.5631 21.0696V22.3147H15.1359V21.0696C15.1359 20.9398 15.2418 20.8342 15.372 20.8342H34.1208C34.5268 20.8342 34.8557 20.5063 34.8557 20.1018C34.8557 19.6973 34.5268 19.3694 34.1208 19.3694H15.372C14.4313 19.3694 13.6659 20.1321 13.6659 21.0696V29.9153C13.6659 31.02 13.7956 32.1152 14.0482 33.179C12.852 32.8235 11.4265 33.1028 10.1259 33.9896C9.79083 34.218 9.70499 34.6738 9.9342 35.0077C10.1635 35.3415 10.621 35.4269 10.9559 35.1986C11.8083 34.6175 12.7028 34.3893 13.4425 34.537L10.7654 38.5284C10.5398 38.8647 10.6306 39.3196 10.968 39.5443C11.0934 39.6279 11.2354 39.6679 11.3757 39.6679C11.613 39.6679 11.8458 39.5537 11.9874 39.3425L14.6653 35.3497C14.943 35.7605 15.0952 36.2981 15.1024 36.9247C15.1024 36.925 15.1024 36.9252 15.1024 36.9255C15.1024 36.9268 15.1025 36.9282 15.1025 36.9296C15.1123 37.8971 14.7731 38.9437 14.1474 39.8765C13.7907 40.4085 13.3689 40.8646 12.8913 41.2342C12.5601 41.4926 12.2122 41.6993 11.8558 41.8508H9.53398C9.50743 41.8349 9.48097 41.819 9.45461 41.8012C8.23092 40.9868 8.15351 38.8804 9.27831 37.0059C9.48665 36.6588 9.37317 36.209 9.02479 36.0013C8.67661 35.7939 8.22514 35.9068 8.0168 36.2541C7.29976 37.4489 6.94952 38.7802 7.03066 40.0027C7.07672 40.6964 7.25889 41.3215 7.55876 41.8507H5.68712C5.28112 41.8507 4.95215 42.1786 4.95215 42.5831V44.335C4.95215 44.6869 5.20322 44.9889 5.55003 45.0546L16.3581 47.1V49.2676C16.3581 49.6721 16.6871 50 17.0931 50H38.6061C39.0121 50 39.3411 49.6721 39.3411 49.2676V47.1002L50.1501 45.0546C50.4969 44.9889 50.748 44.6868 50.748 44.335V42.5831C50.748 42.1787 50.4189 41.8508 50.013 41.8508ZM42.0329 29.9151V26.4499H42.033C42.4589 26.232 42.9299 26.1164 43.4158 26.1164C45.0914 26.1164 46.4546 27.4749 46.4546 29.1447C46.4546 30.8145 45.0914 32.173 43.4158 32.173C42.8818 32.173 42.3678 32.0348 41.9112 31.7743C41.9914 31.1628 42.0329 30.5422 42.0329 29.9151ZM41.6321 33.272C42.1909 33.5125 42.7946 33.638 43.4158 33.638C45.9019 33.638 47.9246 31.6223 47.9246 29.1448C47.9246 26.6672 45.9019 24.6516 43.4158 24.6516C42.9415 24.6516 42.4762 24.7255 42.033 24.8678V23.0546C42.033 23.0521 42.0334 23.0497 42.0334 23.0471C42.0334 23.0446 42.033 23.0421 42.033 23.0396V22.9821C42.4842 22.8817 42.9473 22.8302 43.4159 22.8302C46.9097 22.8302 49.7523 25.6629 49.7523 29.1447C49.7523 32.627 46.9097 35.4601 43.4159 35.4601C42.6055 35.4601 41.8244 35.3096 41.0852 35.017C41.3054 34.4491 41.4876 33.8663 41.6321 33.272ZM15.1359 23.7795H40.5631V26.034C40.5631 26.0348 40.5631 26.0357 40.5631 26.0365V29.9152C40.5631 33.2994 39.2408 36.4813 36.8401 38.8747C35.51 40.1993 33.8809 41.2259 32.1232 41.8508H23.5778C23.3407 41.7667 23.1049 41.6762 22.8719 41.5773C23.4112 40.7324 23.6167 39.7924 23.4392 38.8965C23.439 38.8953 23.4389 38.8942 23.4387 38.893C23.4384 38.8917 23.438 38.8903 23.4378 38.8889C23.2034 37.7234 22.377 36.7644 21.1101 36.1884C19.9234 35.6489 18.4729 35.5092 17.0258 35.7956C16.8942 35.8216 16.7638 35.8514 16.6344 35.8842C15.6534 34.0566 15.1359 32.0054 15.1359 29.9153V23.7795ZM15.3697 40.6904C16.0501 39.676 16.4607 38.5384 16.5524 37.436C16.799 37.3532 17.0526 37.2838 17.3124 37.2322C19.1824 36.8623 20.9856 37.423 21.7046 38.4898L16.9811 39.4255C16.583 39.5044 16.3244 39.8898 16.4035 40.2866C16.473 40.6351 16.7801 40.8763 17.1236 40.8763C17.1711 40.8763 17.2194 40.8718 17.2677 40.8621L21.9941 39.9258C21.8998 40.4076 21.6303 40.8906 21.1986 41.3344C21.1975 41.3355 21.1964 41.3368 21.1953 41.338C21.0153 41.522 20.8117 41.6934 20.5901 41.8506H14.4103C14.7626 41.5044 15.0839 41.1166 15.3697 40.6904ZM37.8711 48.5353H17.8279V47.2189H37.8711V48.5353Z" fill="#FF4B32"/>
<path d="M29.7626 14.6436C29.7494 14.652 29.7385 14.6587 29.7307 14.6637C29.738 14.659 29.7488 14.6522 29.7626 14.6436Z" fill="#FF4B32"/>
<path d="M29.7309 14.6636C29.7109 14.6762 29.7134 14.6746 29.7309 14.6636V14.6636Z" fill="#FF4B32"/>
<path d="M31.3539 7.99494C32.3437 7.05744 32.9137 5.75832 32.9137 4.36378C32.9137 2.62794 32.032 1.03877 30.5549 0.1126C30.2115 -0.10283 29.7574 0.000100211 29.5415 0.342484C29.3253 0.684867 29.4286 1.13702 29.7721 1.35245C30.8189 2.0088 31.4439 3.13448 31.4439 4.36368C31.4439 5.59288 30.8189 6.71857 29.7721 7.37492C29.3228 7.65578 29.3228 8.33293 29.7721 8.61477C30.8189 9.27111 31.4439 10.3968 31.4439 11.626C31.444 12.8553 30.819 13.9811 29.7722 14.6374C29.7684 14.6398 29.766 14.6413 29.7626 14.6435C29.7658 14.6415 29.7688 14.6397 29.7722 14.6375C29.4287 14.853 29.3254 15.3051 29.5416 15.6475C29.6812 15.8688 29.92 15.99 30.1642 15.99C30.298 15.99 30.4334 15.9536 30.5549 15.8774C32.032 14.9513 32.9137 13.362 32.9137 11.6263C32.9137 10.2316 32.3436 8.93244 31.3539 7.99494ZM30.1556 14.397C30.173 14.3862 30.1751 14.3848 30.1556 14.397V14.397ZM30.0599 14.4572C30.0759 14.447 30.0908 14.4377 30.1043 14.4293C30.0914 14.4373 30.077 14.4464 30.0599 14.4572Z" fill="#FF4B32"/>
<path d="M35.7273 7.37508C35.3838 7.15965 34.9299 7.26248 34.7138 7.60496C34.4976 7.94724 34.6009 8.39949 34.9445 8.61492C35.9912 9.27127 36.6161 10.3971 36.6161 11.6263C36.6162 12.8553 35.9913 13.981 34.9446 14.6374C34.601 14.8528 34.4977 15.305 34.7139 15.6474C34.8536 15.8686 35.0924 15.9898 35.3366 15.9898C35.4704 15.9898 35.6058 15.9534 35.7273 15.8772C37.2042 14.9512 38.086 13.3619 38.086 11.6262C38.086 9.89041 37.2042 8.30115 35.7273 7.37508Z" fill="#FF4B32"/>
<path d="M24.959 7.37505C24.6155 7.15962 24.1615 7.26255 23.9455 7.60494C23.7293 7.94732 23.8326 8.39947 24.1762 8.6149C25.223 9.27125 25.8479 10.3969 25.8479 11.6261C25.848 12.8553 25.2231 13.9811 24.1763 14.6375C23.8327 14.8529 23.7294 15.305 23.9456 15.6474C24.0853 15.8687 24.3241 15.9899 24.5683 15.9899C24.702 15.9899 24.8375 15.9535 24.959 15.8773C26.436 14.9512 27.3178 13.362 27.3178 11.6262C27.3178 9.89039 26.436 8.30123 24.959 7.37505Z" fill="#FF4B32"/>
</g>
<defs>
<filter id="filter0_d_1_617" x="-1" y="0" width="58.1743" height="58" filterUnits="userSpaceOnUse" color-interpolation-filters="sRGB">
<feFlood flood-opacity="0" result="BackgroundImageFix"/>
<feColorMatrix in="SourceAlpha" type="matrix" values="0 0 0 0 0 0 0 0 0 0 0 0 0 0 0 0 0 0 127 0" result="hardAlpha"/>
<feOffset dy="4"/>
<feGaussianBlur stdDeviation="2"/>
<feComposite in2="hardAlpha" operator="out"/>
<feColorMatrix type="matrix" values="0 0 0 0 0 0 0 0 0 0 0 0 0 0 0 0 0 0 0.25 0"/>
<feBlend mode="normal" in2="BackgroundImageFix" result="effect1_dropShadow_1_617"/>
<feBlend mode="normal" in="SourceGraphic" in2="effect1_dropShadow_1_617" result="shape"/>
</filter>
<clipPath id="clip0_1_617">
<rect width="50.1742" height="50" fill="white" transform="translate(3)"/>
</clipPath>
</defs>
</svg>
