<svg width="453" height="430" viewBox="0 0 453 430" fill="none" xmlns="http://www.w3.org/2000/svg">
<path d="M303.834 313.352C302.469 311.846 305.687 303.048 320.959 302.426C336.23 301.803 342.348 307.34 342.37 313.352C342.382 316.013 303.834 313.352 303.834 313.352Z" fill="#455A64"/>
<path d="M296.295 83.1813L279.329 187.657H434.271L452.942 82.0603L296.295 83.1813Z" fill="#F5F5F5"/>
<path d="M294.748 92.6812C294.817 92.3189 451.168 92.0924 451.168 92.0924L452.942 82.0603L296.295 83.1926L294.748 92.7038" fill="#E0E0E0"/>
<path d="M302.845 87.8803C302.847 88.1652 302.764 88.4443 302.607 88.6823C302.45 88.9202 302.225 89.1063 301.961 89.2169C301.697 89.3275 301.407 89.3575 301.126 89.3033C300.845 89.2491 300.587 89.1131 300.383 88.9124C300.18 88.7118 300.042 88.4556 299.985 88.1763C299.928 87.8971 299.956 87.6074 300.065 87.344C300.174 87.0805 300.359 86.8553 300.597 86.6968C300.835 86.5383 301.114 86.4536 301.401 86.4536C301.59 86.4521 301.777 86.4879 301.952 86.5589C302.127 86.63 302.287 86.7348 302.421 86.8675C302.555 87.0001 302.662 87.1579 302.734 87.3317C302.807 87.5055 302.845 87.692 302.845 87.8803Z" fill="#263238"/>
<path d="M309.895 87.8803C309.895 88.1625 309.811 88.4383 309.653 88.6729C309.496 88.9075 309.272 89.0904 309.01 89.1984C308.748 89.3064 308.46 89.3346 308.182 89.2796C307.904 89.2245 307.649 89.0886 307.449 88.8891C307.248 88.6896 307.112 88.4354 307.057 88.1586C307.001 87.8819 307.03 87.595 307.138 87.3343C307.247 87.0736 307.43 86.8508 307.666 86.6941C307.902 86.5373 308.179 86.4536 308.462 86.4536C308.842 86.4536 309.206 86.6039 309.475 86.8715C309.744 87.1391 309.895 87.5019 309.895 87.8803Z" fill="#263238"/>
<path d="M316.956 87.8803C316.958 88.1652 316.876 88.4443 316.718 88.6823C316.561 88.9202 316.336 89.1063 316.073 89.2169C315.809 89.3275 315.518 89.3575 315.237 89.3033C314.956 89.2491 314.698 89.1131 314.495 88.9124C314.292 88.7118 314.153 88.4556 314.096 88.1763C314.04 87.8971 314.068 87.6074 314.177 87.344C314.286 87.0805 314.471 86.8553 314.708 86.6968C314.946 86.5383 315.226 86.4536 315.512 86.4536C315.701 86.4521 315.889 86.4879 316.064 86.5589C316.239 86.63 316.398 86.7348 316.532 86.8675C316.667 87.0001 316.773 87.1579 316.846 87.3317C316.919 87.5055 316.956 87.692 316.956 87.8803Z" fill="#263238"/>
<path d="M334.456 139.614L315.068 161.943C311.408 159.47 308.4 156.154 306.299 152.277C304.199 148.4 303.069 144.076 303.004 139.671C303.004 124.147 317.206 111.364 334.456 111.364C351.706 111.364 365.908 124.136 365.908 139.671L334.456 139.614Z" fill="#EE4248"/>
<path d="M336.946 143.158C336.852 143.316 336.741 143.464 336.617 143.6L335.605 144.8L331.761 149.329C328.418 153.224 323.665 158.727 317.968 165.351V164.989C322.263 167.933 327.226 169.77 332.409 170.333C338.261 171.005 344.188 170.114 349.58 167.752C354.726 165.526 359.17 161.953 362.44 157.414C363.914 155.297 365.095 152.993 365.954 150.564C366.703 148.294 367.158 145.939 367.307 143.555L367.557 143.815L345.384 143.441L339.152 143.306L337.504 143.249C337.311 143.267 337.116 143.267 336.924 143.249C337.105 143.231 337.288 143.231 337.469 143.249H339.095H345.293L367.557 143.396H367.83V143.668C367.701 146.105 367.25 148.515 366.488 150.835C365.625 153.317 364.427 155.671 362.929 157.833C359.599 162.493 355.048 166.155 349.773 168.42C344.281 170.812 338.25 171.711 332.296 171.024C327.024 170.428 321.983 168.537 317.627 165.521L317.4 165.363L317.581 165.147L331.613 149.216L335.536 144.8L336.582 143.668C336.689 143.488 336.81 143.317 336.946 143.158Z" fill="#263238"/>
<path d="M347.828 124.555C348.802 124.555 349.591 123.769 349.591 122.8C349.591 121.831 348.802 121.045 347.828 121.045C346.855 121.045 346.066 121.831 346.066 122.8C346.066 123.769 346.855 124.555 347.828 124.555Z" fill="#263238"/>
<path d="M384.602 109.96C384.053 110.045 383.498 110.083 382.942 110.073L378.394 110.164C374.584 110.164 369.297 110.254 363.509 110.254H360.735L360.939 110.175C357.289 113.798 354.037 116.969 351.683 119.233L348.897 121.883C348.579 122.227 348.22 122.531 347.828 122.789C348.104 122.412 348.413 122.06 348.749 121.736C349.443 121 350.341 120.071 351.41 118.961C353.684 116.618 356.891 113.379 360.507 109.733L360.587 109.654H363.577C369.388 109.654 374.653 109.654 378.462 109.733L383.01 109.835C383.544 109.827 384.077 109.868 384.602 109.96Z" fill="#263238"/>
<path d="M424.537 132.017C424.545 131.815 424.571 131.614 424.617 131.417C424.685 131.009 424.776 130.454 424.901 129.741L426.038 123.411L430.143 100.698L430.382 100.981L386.342 101.037L386.626 100.8V100.913V101.049V101.309L386.524 101.83L386.331 102.883L385.944 104.966C385.682 106.348 385.432 107.718 385.171 109.077C384.67 111.794 384.174 114.466 383.681 117.093C382.692 122.324 381.748 127.284 380.873 132.051L380.6 131.734L412.325 131.858L421.422 131.937H423.844H424.469H424.696H424.503H423.9H421.524L412.518 132.005L380.679 132.13H380.361L380.418 131.813C381.293 127.091 382.214 122.075 383.192 116.833C383.67 114.217 384.17 111.545 384.67 108.828C384.932 107.457 385.182 106.087 385.444 104.706C385.569 104.015 385.694 103.325 385.83 102.623L386.024 101.581L386.115 101.06L386.171 100.788V100.664V100.562L386.467 100.313L430.507 100.369H430.666L430.609 100.652C428.79 110.13 427.289 117.954 426.243 123.445C425.708 126.129 425.299 128.235 425.003 129.718L424.674 131.337C424.583 131.847 424.537 132.028 424.537 132.017Z" fill="#263238"/>
<path d="M350.592 159.86C351.565 159.86 352.354 159.074 352.354 158.105C352.354 157.135 351.565 156.35 350.592 156.35C349.618 156.35 348.829 157.135 348.829 158.105C348.829 159.074 349.618 159.86 350.592 159.86Z" fill="#263238"/>
<path d="M382.59 158.105C382.59 158.274 375.426 158.399 366.591 158.399C357.755 158.399 350.591 158.274 350.591 158.105C350.591 157.935 357.755 157.81 366.591 157.81C375.426 157.81 382.59 157.946 382.59 158.105Z" fill="#263238"/>
<path d="M424.537 171.783C424.551 171.637 424.578 171.493 424.617 171.352C424.685 171.047 424.776 170.639 424.901 170.129C425.163 168.997 425.538 167.491 426.038 165.521C427.028 161.513 428.438 155.795 430.177 148.763L430.393 149.035L384.977 149.103L385.262 148.888V148.956V149.046V149.239L385.159 149.624L384.966 150.371L384.591 151.888C384.329 152.885 384.079 153.881 383.829 154.878L382.214 160.811C381.236 164.649 380.293 168.363 379.383 171.907L379.121 171.567L411.699 171.692L421.115 171.76H423.639H424.298H424.537H424.333H423.696H421.228L411.859 171.828L379.121 171.952H378.758L378.848 171.601C379.747 168.057 380.679 164.332 381.646 160.494C382.131 158.569 382.627 156.618 383.135 154.64L383.886 151.651L384.272 150.145L384.466 149.386L384.557 149.001V148.82V148.718V148.65L384.841 148.424L430.257 148.503H430.666L430.598 148.775C428.756 155.84 427.266 161.581 426.22 165.6C425.697 167.536 425.288 169.065 425.003 170.129C424.867 170.616 424.765 171.001 424.685 171.262C424.605 171.522 424.537 171.794 424.537 171.783Z" fill="#263238"/>
<path d="M420.955 110.356C420.955 110.526 414.212 110.651 405.889 110.651C397.565 110.651 390.822 110.526 390.822 110.356C390.822 110.186 397.565 110.062 405.889 110.062C414.212 110.062 420.955 110.198 420.955 110.356Z" fill="#263238"/>
<path d="M420.603 115.27C420.603 115.44 413.78 115.565 405.457 115.565C397.133 115.565 390.299 115.44 390.299 115.27C390.299 115.1 397.122 114.976 405.457 114.976C413.792 114.976 420.603 115.112 420.603 115.27Z" fill="#263238"/>
<path d="M419.727 120.048C419.727 120.207 413.178 120.343 405.104 120.343C397.031 120.343 390.47 120.207 390.47 120.048C390.47 119.89 397.019 119.754 405.104 119.754C413.189 119.754 419.727 119.845 419.727 120.048Z" fill="#263238"/>
<path d="M420.25 157.561C420.25 157.72 413.826 157.855 405.889 157.855C397.952 157.855 391.527 157.72 391.527 157.561C391.527 157.403 397.963 157.267 405.889 157.267C413.814 157.267 420.25 157.414 420.25 157.561Z" fill="#263238"/>
<path d="M418.488 162.996C418.488 163.166 413.007 163.29 406.241 163.29C399.476 163.29 393.995 163.166 393.995 162.996C393.995 162.826 399.476 162.702 406.241 162.702C413.007 162.702 418.488 162.838 418.488 162.996Z" fill="#263238"/>
<path d="M235.471 276.757C234.925 279.938 219.756 313.363 229.547 313.363H278.761C278.761 313.363 273.678 308.608 289.063 276.757H235.471Z" fill="#455A64"/>
<path d="M203.632 165.193L183.517 282.248H353.184L373.993 161.083L203.632 165.193Z" fill="#455A64"/>
<path d="M209.398 170.899L192.443 275.387H347.374L366.045 169.79L209.398 170.899Z" fill="#FAFAFA"/>
<path d="M373.993 161.083L377.2 163.234L355.595 285.43H187.997L183.517 282.248H353.184L373.993 161.083Z" fill="#263238"/>
<path d="M207.862 180.411C207.919 180.037 364.271 179.822 364.271 179.822L366.045 169.79L209.398 170.922L207.862 180.433" fill="#EBEBEB"/>
<path d="M322.96 266.113V265.819L323.096 264.947C323.24 264.117 323.434 262.984 323.676 261.55C324.211 258.504 324.961 254.134 325.894 248.71C327.827 237.727 330.522 222.441 333.58 205.094V204.845H346.384L346.327 205.196C341.586 230.775 337.435 253.25 335.036 266.17V266.306H334.911L325.996 266.215H323.722H323.165H323.779H326.132L334.945 266.125L334.786 266.249L345.793 205.23L346.089 205.57H333.899L334.183 205.332C331.033 222.577 328.27 237.761 326.223 248.687C325.223 254.122 324.404 258.504 323.835 261.561C323.551 263.045 323.335 264.211 323.176 265.049C323.096 265.423 323.039 265.728 322.994 265.955C322.985 266.008 322.973 266.061 322.96 266.113Z" fill="#263238"/>
<path d="M303.311 266.113C303.326 265.838 303.368 265.565 303.436 265.298C303.538 264.698 303.686 263.894 303.868 262.875C304.277 260.69 304.846 257.598 305.562 253.817C307.052 245.97 309.133 235.055 311.509 222.577V222.339H324.313L324.245 222.69C320.652 240.433 317.422 256.206 315.421 266.204V266.351H315.273L306.37 266.249H304.095C303.842 266.266 303.587 266.266 303.334 266.249H304.175H306.54L315.319 266.147L315.137 266.294C317.115 256.285 320.231 240.501 323.733 222.735L324.017 223.086H311.759L312.044 222.86C309.576 235.224 307.416 246.049 305.858 253.828C305.073 257.689 304.448 260.791 303.993 262.977L303.481 265.456C303.481 265.717 303.368 265.932 303.334 266.102L303.311 266.113Z" fill="#263238"/>
<path d="M283.582 266.113C283.572 265.993 283.572 265.871 283.582 265.751L283.764 264.619C283.935 263.622 284.173 262.195 284.492 260.361C285.151 256.613 286.095 251.212 287.278 244.509C289.688 230.922 293.043 212.115 296.841 190.794V190.556H309.644L309.588 190.896C303.652 223.268 298.41 251.473 295.635 266.113V266.238H295.51L286.561 266.147H284.287H283.537H284.344H286.675L295.522 266.068L295.385 266.181C297.978 251.461 303.095 223.279 309.03 190.918L309.326 191.269H297.17L297.455 191.02C293.577 212.228 290.143 230.978 287.664 244.464C286.413 251.19 285.39 256.613 284.708 260.372L283.889 264.686C283.798 265.162 283.73 265.536 283.673 265.819L283.582 266.113Z" fill="#263238"/>
<path d="M263.887 266.113C263.896 265.923 263.919 265.734 263.956 265.547C264.035 265.105 264.126 264.551 264.24 263.849C264.501 262.286 264.877 260.112 265.377 257.406C266.366 251.801 267.742 244.022 269.323 235.032V234.794H282.115L282.047 235.145C279.693 247.374 277.578 258.38 276.077 266.158V266.328H275.918L267.049 266.215L264.649 266.113C264.388 266.129 264.126 266.129 263.865 266.113H264.729H267.128L275.861 266L275.656 266.158C277.112 258.38 279.17 247.351 281.444 235.111L281.74 235.462H269.562L269.834 235.236C268.152 244.124 266.707 251.812 265.65 257.349C265.127 260.067 264.695 262.263 264.388 263.837C264.24 264.551 264.126 265.139 264.035 265.581C263.996 265.761 263.947 265.939 263.887 266.113Z" fill="#263238"/>
<path d="M244.181 266.113C244.181 266.113 244.181 266.034 244.181 265.875C244.181 265.717 244.181 265.434 244.284 265.139C244.398 264.449 244.545 263.498 244.739 262.275C245.159 259.727 245.751 256.081 246.49 251.552C248.036 242.335 250.174 229.518 252.619 214.923V214.685H265.423L265.354 215.036C261.602 236.13 258.293 254.779 256.258 266.147V266.294H256.121L247.229 266.192H244.898C244.644 266.209 244.39 266.209 244.136 266.192H244.352H244.966H247.331L256.121 266.102L255.951 266.238L264.797 215.081L265.093 215.432H252.96L253.244 215.194C250.708 229.688 248.48 242.369 246.876 251.552C246.058 256.081 245.41 259.761 244.943 262.331C244.716 263.566 244.545 264.596 244.409 265.241L244.261 266.011L244.181 266.113Z" fill="#263238"/>
<path d="M224.51 266.113C224.495 266.004 224.495 265.894 224.51 265.785C224.51 265.536 224.601 265.207 224.669 264.788C224.828 263.871 225.044 262.524 225.328 260.893C225.908 257.497 226.761 252.526 227.807 246.389C229.968 233.99 232.981 216.734 236.392 197.202V196.965H249.196L249.139 197.316C243.84 226.664 239.155 252.322 236.574 266.147V266.272H236.449L227.523 266.181H225.249H224.703H225.306H227.637L236.472 266.091L236.324 266.215C238.735 252.356 243.306 226.676 248.605 197.338L248.889 197.678H236.711L236.995 197.44C233.504 216.87 230.411 234.024 228.194 246.355C227.057 252.514 226.158 257.463 225.522 260.905C225.215 262.603 224.964 263.917 224.794 264.856C224.703 265.287 224.646 265.626 224.589 265.887C224.532 266.147 224.51 266.113 224.51 266.113Z" fill="#263238"/>
<path d="M215.947 175.61C215.949 175.895 215.867 176.174 215.709 176.412C215.552 176.65 215.327 176.836 215.064 176.946C214.8 177.057 214.509 177.087 214.228 177.033C213.948 176.979 213.689 176.842 213.486 176.642C213.283 176.441 213.144 176.185 213.088 175.906C213.031 175.627 213.059 175.337 213.168 175.073C213.277 174.81 213.462 174.585 213.7 174.426C213.937 174.268 214.217 174.183 214.503 174.183C214.884 174.183 215.25 174.333 215.52 174.6C215.791 174.867 215.944 175.23 215.947 175.61Z" fill="#263238"/>
<path d="M221.564 177.036C222.356 177.036 222.997 176.398 222.997 175.61C222.997 174.822 222.356 174.183 221.564 174.183C220.773 174.183 220.132 174.822 220.132 175.61C220.132 176.398 220.773 177.036 221.564 177.036Z" fill="#263238"/>
<path d="M230.059 175.61C230.061 175.895 229.978 176.175 229.82 176.413C229.662 176.651 229.437 176.837 229.172 176.947C228.908 177.058 228.617 177.087 228.336 177.032C228.054 176.977 227.796 176.84 227.593 176.638C227.391 176.436 227.253 176.179 227.198 175.899C227.142 175.619 227.172 175.329 227.283 175.065C227.393 174.802 227.58 174.578 227.819 174.421C228.059 174.263 228.339 174.181 228.626 174.183C229.005 174.186 229.368 174.337 229.636 174.604C229.904 174.871 230.056 175.232 230.059 175.61Z" fill="#263238"/>
<path d="M204.815 266.113C204.815 266.113 204.815 265.819 204.94 265.241C205.065 264.664 205.179 263.758 205.361 262.671C205.759 260.406 206.316 257.089 207.01 253.024C208.465 244.713 210.478 233.164 212.786 219.984V219.746H225.59L225.522 220.097C222.008 238.961 218.881 255.696 216.936 266.159V266.306H216.8L207.896 266.204H205.622C205.365 266.22 205.107 266.22 204.849 266.204H205.076H205.69H208.056L216.845 266.102L216.664 266.249L225.021 220.154L225.306 220.493H213.07L213.355 220.256C210.955 233.334 208.806 244.792 207.351 253.024C206.577 257.112 205.963 260.406 205.52 262.716C205.315 263.849 205.145 264.709 205.02 265.343L204.883 266.034C204.862 266.061 204.839 266.088 204.815 266.113Z" fill="#263238"/>
<path d="M337.731 220.041H272.825L276.532 198.346H341.893L337.731 220.041Z" fill="#EE4248"/>
<path d="M272.825 220.041L271.563 227.616C271.563 227.616 280.091 219.746 279.955 219.746H272.882" fill="#EE4248"/>
<path d="M332.102 205.887C332.102 206.045 321.288 206.181 307.962 206.181C294.635 206.181 283.81 206.045 283.81 205.887C283.81 205.728 294.623 205.593 307.962 205.593C321.3 205.593 332.102 205.728 332.102 205.887Z" fill="#FAFAFA"/>
<path d="M331.465 211.129C331.465 211.288 320.652 211.424 307.325 211.424C293.998 211.424 283.173 211.288 283.173 211.129C283.173 210.971 293.987 210.835 307.325 210.835C320.663 210.835 331.465 210.96 331.465 211.129Z" fill="#FAFAFA"/>
<path d="M437.625 320.859H252.71V428.302H437.625V320.859Z" fill="#263238"/>
<path d="M336.946 320.859H252.71V428.302H336.946V320.859Z" fill="#455A64"/>
<path d="M328.327 357.353C328.327 357.353 328.327 357.16 328.327 356.809C328.327 356.458 328.327 355.915 328.327 355.247C328.327 353.854 328.327 351.85 328.27 349.28C328.27 344.116 328.213 336.677 328.156 327.506L328.372 327.721L260.612 327.8C260.351 328.072 260.965 327.449 260.908 327.517V335.284C260.908 337.855 260.908 340.391 260.908 342.882C260.908 347.875 260.908 352.722 260.908 357.353L260.635 357.081L309.201 357.205L323.29 357.285H327.065H328.054H328.395C328.293 357.296 328.19 357.296 328.088 357.285H327.133H323.415L309.394 357.364L260.635 357.5H260.351V357.217C260.351 352.586 260.351 347.74 260.351 342.746V327.517C260.283 327.517 260.908 326.951 260.647 327.211L328.327 327.257H328.543V327.46C328.543 336.688 328.452 344.162 328.429 349.37C328.429 351.918 328.429 353.899 328.372 355.281C328.372 355.926 328.372 356.413 328.372 356.809C328.371 356.991 328.355 357.173 328.327 357.353Z" fill="#263238"/>
<path d="M297.364 342.429C297.364 342.429 297.296 342.18 297.159 341.761C296.969 341.182 296.599 340.678 296.102 340.323C295.743 340.065 295.326 339.899 294.887 339.842C294.448 339.784 294.002 339.837 293.589 339.995C293.089 340.18 292.658 340.513 292.354 340.95C292.05 341.386 291.887 341.904 291.887 342.435C291.887 342.966 292.05 343.484 292.354 343.92C292.658 344.356 293.089 344.689 293.589 344.875C294.003 345.027 294.448 345.076 294.886 345.019C295.323 344.962 295.741 344.8 296.102 344.546C296.599 344.191 296.969 343.688 297.159 343.109C297.296 342.69 297.307 342.429 297.364 342.429C297.421 342.429 297.455 342.69 297.364 343.165C297.232 343.839 296.866 344.444 296.329 344.875C295.923 345.204 295.439 345.423 294.923 345.512C294.408 345.601 293.878 345.557 293.384 345.384C292.77 345.17 292.238 344.771 291.861 344.243C291.485 343.715 291.282 343.083 291.282 342.435C291.282 341.787 291.485 341.155 291.861 340.627C292.238 340.098 292.77 339.699 293.384 339.485C293.877 339.314 294.406 339.27 294.921 339.357C295.436 339.444 295.92 339.659 296.329 339.983C296.867 340.417 297.234 341.027 297.364 341.704C297.455 342.18 297.398 342.44 297.364 342.429Z" fill="#263238"/>
<path d="M328.327 390.212C328.327 390.212 328.327 390.019 328.327 389.668C328.327 389.317 328.327 388.762 328.327 388.094C328.327 386.701 328.327 384.697 328.27 382.138C328.27 376.964 328.213 369.536 328.157 360.365L328.373 360.58L260.613 360.659L260.908 360.365V368.121C260.908 370.691 260.908 373.216 260.908 375.718C260.908 380.712 260.908 385.547 260.908 390.189L260.635 389.906L309.201 390.042L323.29 390.121H327.065H328.054C328.168 390.112 328.282 390.112 328.395 390.121H328.088H327.133H323.415L309.394 390.2L260.635 390.336H260.351V390.053C260.351 385.411 260.351 380.576 260.351 375.582V360.387L260.647 360.093L328.407 360.172H328.623V360.387C328.623 369.615 328.532 377.088 328.509 382.286C328.509 384.833 328.509 386.815 328.452 388.207C328.452 388.853 328.452 389.34 328.452 389.725C328.421 389.889 328.379 390.052 328.327 390.212Z" fill="#263238"/>
<path d="M297.364 375.288C297.364 375.288 297.296 375.028 297.159 374.609C296.969 374.03 296.599 373.526 296.102 373.171C295.741 372.918 295.323 372.756 294.886 372.698C294.448 372.641 294.003 372.691 293.589 372.842C293.089 373.028 292.658 373.361 292.354 373.797C292.05 374.233 291.887 374.751 291.887 375.282C291.887 375.813 292.05 376.332 292.354 376.768C292.658 377.204 293.089 377.537 293.589 377.722C294.001 377.879 294.447 377.932 294.885 377.876C295.323 377.821 295.741 377.659 296.102 377.405C296.602 377.048 296.973 376.54 297.159 375.956C297.296 375.537 297.307 375.288 297.364 375.288C297.421 375.288 297.455 375.548 297.364 376.013C297.236 376.691 296.869 377.301 296.329 377.734C295.922 378.061 295.437 378.278 294.922 378.365C294.406 378.452 293.877 378.407 293.384 378.232C292.77 378.018 292.238 377.619 291.861 377.091C291.485 376.562 291.282 375.93 291.282 375.282C291.282 374.634 291.485 374.003 291.861 373.474C292.238 372.946 292.77 372.547 293.384 372.333C293.878 372.16 294.408 372.116 294.923 372.205C295.439 372.294 295.923 372.514 296.329 372.842C296.869 373.275 297.236 373.885 297.364 374.563C297.455 375.028 297.398 375.288 297.364 375.288Z" fill="#263238"/>
<path d="M328.327 423.059C328.327 423.059 328.327 422.867 328.327 422.516C328.327 422.165 328.327 421.621 328.327 420.953C328.327 419.56 328.327 417.556 328.27 414.986C328.27 409.823 328.213 402.384 328.156 393.212L328.372 393.427L260.612 393.507C260.351 393.778 260.965 393.156 260.908 393.223V400.991C260.908 403.561 260.908 406.097 260.908 408.589C260.908 413.582 260.908 418.428 260.908 423.059L260.635 422.787L309.201 422.912L323.29 422.991H327.065H328.054H328.395C328.293 423.002 328.19 423.002 328.088 422.991H327.133H323.415L309.394 423.059L260.635 423.195H260.351V422.912C260.351 418.281 260.351 413.435 260.351 408.441V393.223C260.283 393.28 260.908 392.657 260.647 392.918L328.407 393.008H328.623V393.212C328.623 402.44 328.532 409.925 328.509 415.122C328.509 417.669 328.509 419.651 328.452 421.032C328.452 421.689 328.452 422.165 328.452 422.561C328.422 422.73 328.38 422.896 328.327 423.059Z" fill="#263238"/>
<path d="M297.364 408.136C297.364 408.136 297.296 407.887 297.159 407.468C296.969 406.888 296.599 406.385 296.102 406.03C295.742 405.774 295.324 405.61 294.886 405.553C294.448 405.496 294.002 405.547 293.589 405.701C293.089 405.887 292.658 406.22 292.354 406.656C292.05 407.092 291.887 407.61 291.887 408.141C291.887 408.672 292.05 409.19 292.354 409.627C292.658 410.063 293.089 410.396 293.589 410.581C294.002 410.736 294.448 410.787 294.886 410.73C295.324 410.672 295.742 410.509 296.102 410.253C296.599 409.898 296.969 409.394 297.159 408.815C297.296 408.396 297.307 408.136 297.364 408.136C297.421 408.136 297.455 408.396 297.364 408.872C297.231 409.548 296.865 410.157 296.329 410.593C295.92 410.917 295.436 411.132 294.921 411.219C294.406 411.306 293.877 411.262 293.384 411.091C292.77 410.877 292.238 410.478 291.861 409.95C291.485 409.421 291.282 408.789 291.282 408.141C291.282 407.493 291.485 406.861 291.861 406.333C292.238 405.805 292.77 405.406 293.384 405.192C293.877 405.02 294.406 404.976 294.921 405.063C295.436 405.15 295.92 405.366 296.329 405.69C296.867 406.124 297.234 406.734 297.364 407.411C297.455 407.887 297.398 408.147 297.364 408.136Z" fill="#263238"/>
<path d="M161.514 320.859H5.96979V428.302H161.514V320.859Z" fill="#263238"/>
<path d="M444.323 313.363H0V323.577H444.323V313.363Z" fill="#263238"/>
<path d="M19.7515 323.577H5.96979V428.302H19.7515V323.577Z" fill="#455A64"/>
<path d="M178.718 151.752C178.627 151.323 178.562 150.888 178.525 150.45C178.36 149.286 177.974 148.164 177.388 147.144C177.008 146.461 176.43 145.908 175.728 145.559C175.332 145.39 174.895 145.341 174.472 145.42C174.049 145.499 173.659 145.701 173.351 146C172.034 147.628 171.316 149.656 171.316 151.747C171.316 153.837 172.034 155.865 173.351 157.493C173.658 157.795 174.047 157.999 174.47 158.08C174.894 158.16 175.331 158.114 175.728 157.946C176.428 157.589 177.006 157.034 177.388 156.349C177.974 155.329 178.36 154.207 178.525 153.043C178.562 152.609 178.626 152.178 178.718 151.752C178.792 152.191 178.792 152.639 178.718 153.077C178.642 154.297 178.305 155.486 177.729 156.565C177.318 157.343 176.68 157.978 175.898 158.388C175.435 158.608 174.916 158.684 174.409 158.603C173.879 158.499 173.386 158.261 172.976 157.912C171.508 156.192 170.702 154.009 170.702 151.752C170.702 149.496 171.508 147.312 172.976 145.593C173.382 145.236 173.877 144.993 174.409 144.891C174.916 144.816 175.434 144.89 175.898 145.106C176.68 145.515 177.318 146.151 177.729 146.929C178.307 148.011 178.644 149.204 178.718 150.428C178.791 150.866 178.791 151.314 178.718 151.752Z" fill="#263238"/>
<path d="M129.63 129.616L126.218 197.463L155.487 200.203L157.102 183.728C157.102 183.728 167.336 186.264 170.52 176.787C172.51 170.73 174.284 123.298 174.284 123.298L129.63 129.616Z" fill="#FFBE9D"/>
<path d="M180.504 130.296C178.013 136.195 168.621 141.256 168.621 141.256L167.086 156.282C165.689 156.186 164.287 156.186 162.89 156.282C163.64 149.227 154.532 150.62 153.6 155.41C152.713 160.029 158 163.121 158 163.121C154.35 168.691 152.872 171.635 147.687 176.855C142.092 182.517 139.079 182.97 133.291 182.8L126.912 182.505C126.912 182.505 124.638 177.082 122.989 164.276C122.182 158.116 117.304 150.043 118.725 140.022C122.637 111.568 154.259 116.618 154.259 116.618C166.131 107.424 186.371 116.425 180.504 130.296Z" fill="#263238"/>
<path d="M178.718 151.832C176.56 152.246 174.367 152.458 172.169 152.466C169.982 152.659 167.783 152.659 165.596 152.466C167.752 152.058 169.941 151.85 172.135 151.843C174.325 151.649 176.528 151.646 178.718 151.832Z" fill="#263238"/>
<path d="M271.961 231.533L261.329 238.089L257.429 247.147V239.221C257.429 239.221 260.317 235.825 262.682 233.345C265.047 230.865 263.353 229.144 262.682 228.295C262.011 227.446 251.834 239.221 251.834 239.221V246.015C247.092 240.206 244.898 242.199 244.17 243.252C243.442 244.305 251.834 252.186 251.834 252.186V254.587L210.137 276.915L199.164 249.74L176.751 261.459L190.135 293.718C191.058 295.95 192.452 297.958 194.223 299.606C195.994 301.253 198.1 302.503 200.398 303.268C202.697 304.034 205.134 304.299 207.544 304.044C209.954 303.789 212.281 303.021 214.367 301.791L263.433 272.907L266.696 267.483C267.829 265.614 268.496 263.502 268.641 261.324L270.335 236.923C273.314 235.066 271.961 231.533 271.961 231.533Z" fill="#FFBE9D"/>
<path d="M210.341 276.949C209.351 280.77 207.971 284.48 206.225 288.023C207.229 284.206 208.608 280.497 210.341 276.949Z" fill="#EB996E"/>
<path d="M270.335 236.923C269.707 237.245 269.061 237.532 268.402 237.783C267.649 238.139 266.978 238.643 266.428 239.266C265.879 239.889 265.463 240.618 265.207 241.407C264.357 243.687 263.322 245.894 262.114 248.008C262.78 245.68 263.632 243.408 264.661 241.214C264.993 240.288 265.52 239.442 266.207 238.735C266.796 238.19 267.478 237.753 268.22 237.444C268.876 237.112 269.599 236.934 270.335 236.923Z" fill="#EB996E"/>
<path d="M270.176 240.784C269.991 240.809 269.815 240.874 269.659 240.976C269.504 241.078 269.373 241.214 269.277 241.373C268.948 242.007 268.527 243.003 268.14 244.068C267.713 245.415 267.212 246.738 266.639 248.031C266.641 246.586 266.963 245.159 267.583 243.852C267.95 242.899 268.419 241.988 268.982 241.135C269.085 240.993 269.217 240.875 269.37 240.789C269.523 240.703 269.693 240.651 269.869 240.637C270.085 240.637 270.187 240.75 270.176 240.784Z" fill="#EB996E"/>
<path d="M170.054 257.327L174.818 273.394L205.054 259.806C203.917 256.409 198.959 241.452 189.396 217.674C186.777 211.154 182.518 205.415 177.027 201.009C171.537 196.603 165 193.678 158.046 192.515C148.153 190.873 137.385 189.593 129.095 189.695C120.866 189.772 112.911 192.658 106.562 197.872C100.212 203.086 95.8516 210.312 94.209 218.342C91.6505 230.967 96.1307 239.312 93.2425 266.94L92.3214 336.428L173.056 339.383L170.054 257.327Z" fill="#EE4248"/>
<path d="M96.9949 266.204C96.9949 266.204 85.7717 266.86 81.3597 258.402C81.3597 258.402 93.4471 213.904 97.6658 208.661L96.9949 266.204Z" fill="#EE4248"/>
<path d="M190.92 222.158C190.631 222.38 190.308 222.556 189.964 222.679C188.975 223.036 187.935 223.231 186.883 223.256C185.23 223.248 183.584 223.039 181.982 222.633C180.117 222.215 178.036 221.592 175.705 221.207C174.49 221.061 173.267 220.996 172.044 221.014C170.72 221.119 169.408 221.335 168.121 221.66C165.266 222.432 162.524 223.574 159.968 225.057C157.204 226.551 154.396 228.318 151.405 230.061C148.337 231.957 145.049 233.478 141.615 234.59C138.086 235.679 134.317 235.738 130.755 234.76C127.525 233.719 124.515 232.096 121.875 229.971C119.339 228.012 117.133 225.951 115.052 224.071C113.154 222.31 111.141 220.676 109.025 219.18C106.014 216.939 102.503 215.455 98.7915 214.855C97.4205 214.778 96.0462 214.778 94.6752 214.855C95.0105 214.719 95.3622 214.628 95.7213 214.583C96.7513 214.42 97.7962 214.37 98.837 214.436C102.67 214.879 106.326 216.29 109.458 218.535C111.642 220.003 113.717 221.626 115.666 223.392C117.781 225.249 120.01 227.265 122.489 229.144C125.037 231.155 127.931 232.689 131.028 233.673C134.389 234.575 137.938 234.508 141.262 233.481C144.602 232.393 147.804 230.923 150.803 229.099C153.77 227.389 156.602 225.623 159.422 224.128C162.074 222.628 164.915 221.485 167.87 220.731C169.222 220.409 170.6 220.205 171.987 220.12C173.269 220.133 174.549 220.232 175.819 220.414C178.23 220.867 180.288 221.546 182.118 222.022C183.663 222.466 185.254 222.731 186.86 222.815C188.239 222.807 189.609 222.585 190.92 222.158Z" fill="#263238"/>
<path d="M170.588 277.606C169.047 276.692 167.345 276.077 165.574 275.794C163.644 275.567 161.69 275.675 159.797 276.111C157.637 276.542 155.306 277.323 152.747 277.957C148.357 279.081 143.76 279.143 139.341 278.138C135.929 277.345 134.099 276.27 134.155 276.157C134.212 276.043 136.191 276.757 139.511 277.289C143.817 278.019 148.228 277.845 152.463 276.779C154.953 276.157 157.33 275.398 159.592 275.002C161.609 274.596 163.685 274.573 165.71 274.934C167.081 275.176 168.384 275.709 169.531 276.496C170.327 277.119 170.645 277.561 170.588 277.606Z" fill="#263238"/>
<path d="M171.407 319.093C171.407 319.093 171.1 319.602 170.338 320.316C169.238 321.318 168.006 322.167 166.677 322.841C164.682 323.872 162.476 324.43 160.229 324.471C157.487 324.396 154.784 323.796 152.269 322.705C149.62 321.674 147.198 320.519 144.912 319.874C142.892 319.26 140.777 319.014 138.67 319.149C137.262 319.234 135.889 319.62 134.644 320.282C133.757 320.769 133.348 321.165 133.269 321.086C133.189 321.006 133.541 320.531 134.406 319.953C135.638 319.064 137.079 318.503 138.59 318.323C140.808 318.065 143.056 318.238 145.208 318.832C147.76 319.622 150.265 320.552 152.713 321.618C155.084 322.651 157.622 323.253 160.206 323.395C162.305 323.404 164.38 322.96 166.29 322.093C169.644 320.587 171.293 318.923 171.407 319.093Z" fill="#263238"/>
<g opacity="0.3">
<path opacity="0.3" d="M83.85 266.985C94.4251 269.136 105.284 266.985 116.053 266.328C122.591 265.943 129.834 265.196 134.997 269.238C139.09 272.409 140.682 277.742 141.922 282.769C146.47 301.95 147.255 319.081 148.267 338.749L95.9602 337.617L83.85 266.985Z" fill="black"/>
</g>
<path opacity="0.3" d="M97.6658 230.876L99.9286 263.35H93.0378L97.6658 230.876Z" fill="black"/>
<path d="M112.357 336.383L216.175 340.04C224.276 340.324 231.943 343.761 237.526 349.613C243.11 355.465 246.165 363.265 246.035 371.336L245.125 430H207.055L204.599 379.421L112.357 376.998V336.383Z" fill="#263238"/>
<path d="M147.175 390.019H136.964V427.237H147.175V390.019Z" fill="#455A64"/>
<path d="M51.2834 271.775V361.452C51.2864 367.098 53.5412 372.513 57.5521 376.504C61.5629 380.496 67.0016 382.738 72.6723 382.738H132.643V271.775C132.64 269.257 131.634 266.844 129.845 265.065C128.056 263.285 125.631 262.286 123.103 262.286H60.8123C58.2851 262.286 55.8614 263.286 54.0743 265.065C52.2873 266.845 51.2834 269.258 51.2834 271.775Z" fill="#455A64"/>
<path d="M213.355 390.019H67.3051C67.3232 385.827 69.0083 381.812 71.9919 378.854C74.9754 375.896 79.0142 374.235 83.2246 374.235H197.56C201.764 374.235 205.796 375.898 208.769 378.858C211.741 381.818 213.411 385.833 213.411 390.019H213.355Z" fill="#455A64"/>
<path d="M132.643 372.14C132.709 373.026 132.633 373.917 132.416 374.778C131.926 376.798 130.859 378.632 129.343 380.059C127.827 381.486 125.928 382.444 123.876 382.818C122.948 382.968 122.008 383.032 121.067 383.01H118.122H105H81.1209L73.9003 382.92H71.9331C71.7037 382.927 71.4743 382.904 71.2509 382.852C71.4765 382.815 71.7046 382.796 71.9331 382.795L73.9003 382.738L81.1209 382.637L105 382.523H121.067C121.98 382.558 122.894 382.505 123.796 382.365C125.393 382.09 126.901 381.442 128.197 380.474C130.12 379.059 131.51 377.041 132.143 374.745C132.62 373.091 132.563 372.129 132.643 372.14Z" fill="#263238"/>
<path d="M151.019 390.325C148.046 390.623 145.056 390.722 142.07 390.619C139.08 390.722 136.086 390.623 133.109 390.325C136.086 390.033 139.08 389.935 142.07 390.03C145.056 389.935 148.045 390.033 151.019 390.325Z" fill="#263238"/>
<path d="M195.457 383.531C195.315 383.167 195.224 382.787 195.184 382.399C195.036 381.663 194.843 380.598 194.615 379.217C194.149 376.443 193.478 372.423 192.75 367.487C192.341 365.018 192.011 362.267 191.465 359.402C191.318 358.689 191.181 357.964 191.033 357.217C190.885 356.469 190.601 355.767 190.385 355.02C190.271 354.658 190.169 354.273 190.055 353.888C189.942 353.503 189.771 353.152 189.623 352.756C189.316 352.008 189.043 351.25 188.714 350.491C187.27 347.39 185.444 344.481 183.278 341.829C180.913 339.012 178.161 336.542 175.102 334.492C172.058 332.417 168.714 330.813 165.187 329.736C161.913 328.701 158.511 328.122 155.078 328.015C148.46 327.868 142.433 327.902 137.408 327.834C132.382 327.766 128.311 327.709 125.491 327.641C124.081 327.641 122.989 327.574 122.239 327.528C121.856 327.54 121.474 327.502 121.101 327.415C121.473 327.32 121.855 327.278 122.239 327.29L125.491 327.177C128.299 327.109 132.382 327.053 137.408 326.996C142.433 326.939 148.426 326.838 155.112 326.928C158.652 327.003 162.163 327.579 165.539 328.638C169.185 329.724 172.638 331.371 175.773 333.518C178.932 335.623 181.767 338.175 184.188 341.093C186.404 343.835 188.265 346.844 189.726 350.049C190.055 350.819 190.328 351.612 190.635 352.371C190.772 352.756 190.92 353.129 191.067 353.503C191.215 353.877 191.283 354.273 191.397 354.635C191.613 355.405 191.818 356.152 192.023 356.9C192.227 357.647 192.307 358.406 192.443 359.164C192.955 362.097 193.228 364.826 193.58 367.294C194.229 372.265 194.717 376.296 195.07 379.081C195.229 380.474 195.354 381.561 195.422 382.297C195.496 382.704 195.508 383.12 195.457 383.531Z" fill="#455A64"/>
<path d="M11.1549 275.013C11.1549 275.013 9.31281 280.142 12.8378 283.856H20.1721C20.1721 283.856 19.524 275.568 11.1549 275.013Z" fill="#EE4248"/>
<path opacity="0.4" d="M11.1549 275.013C11.1549 275.013 9.31281 280.142 12.8378 283.856H20.1721C20.1721 283.856 19.524 275.568 11.1549 275.013Z" fill="black"/>
<path d="M23.6517 264.449C23.3447 264.086 17.0679 273.869 20.5929 283.856H27.5065C27.5065 283.856 30.2128 272.239 23.6517 264.449Z" fill="#EE4248"/>
<path d="M35.8983 275.013C33.6382 275.164 31.5187 276.158 29.963 277.798C28.4073 279.437 27.53 281.601 27.5064 283.856H34.4087C34.4087 283.856 37.4334 279.621 35.8983 275.013Z" fill="#EE4248"/>
<path d="M12.2692 283.471C9.88483 285.176 8.03549 287.519 6.93638 290.229C5.83727 292.939 5.53358 295.904 6.06065 298.78C7.83453 308.97 18.637 313.363 18.637 313.363H30.6107C30.6107 313.363 42.8004 308.008 42.5048 296.991C42.2091 285.973 34.9544 283.63 34.9544 283.63L12.2692 283.471Z" fill="#455A64"/>
<path d="M42.4593 295.756C42.1882 295.302 41.8553 294.886 41.4701 294.522C40.9133 294.08 40.2737 293.752 39.5885 293.557C38.9034 293.363 38.1863 293.306 37.4788 293.39C35.3612 293.79 33.3602 294.656 31.6228 295.926C30.5191 296.629 29.3501 297.224 28.1318 297.704C26.7877 298.213 25.3319 298.358 23.9132 298.123C20.9908 297.625 18.6598 296.062 16.4765 295.02C14.6189 293.941 12.4836 293.429 10.3362 293.548C8.90055 293.697 7.57136 294.37 6.6065 295.439C6.28408 295.861 6.0095 296.316 5.78778 296.798C5.79538 296.655 5.82215 296.515 5.86738 296.379C5.98522 295.972 6.1738 295.589 6.42456 295.247C7.37804 294.056 8.76157 293.284 10.2793 293.095C12.537 292.898 14.8008 293.4 16.7608 294.533C19.035 295.575 21.3092 297.081 24.0497 297.534C25.3711 297.76 26.7293 297.631 27.984 297.16C29.173 296.699 30.3152 296.127 31.3953 295.451C33.2087 294.169 35.2943 293.32 37.4902 292.971C38.2477 292.897 39.0122 292.982 39.7348 293.22C40.4574 293.458 41.1221 293.843 41.6861 294.352C41.9795 294.639 42.2184 294.977 42.3911 295.349C42.448 295.609 42.4821 295.745 42.4593 295.756Z" fill="#263238"/>
<path d="M42.63 298.417C42.3572 297.97 42.0286 297.559 41.6521 297.194C41.1037 296.749 40.4703 296.419 39.7901 296.224C39.1099 296.03 38.3971 295.974 37.6949 296.062C35.6006 296.463 33.623 297.326 31.9071 298.587C30.8321 299.294 29.6894 299.893 28.4958 300.376C27.1639 300.887 25.7186 301.032 24.3112 300.795C21.4116 300.297 19.1033 298.734 16.9428 297.693C15.1137 296.615 13.0042 296.102 10.8821 296.221C9.45569 296.376 8.13833 297.054 7.18648 298.123C6.86894 298.539 6.60177 298.992 6.3905 299.47C6.3905 299.47 6.3905 299.323 6.45873 299.051C6.58175 298.666 6.76602 298.303 7.00454 297.976C7.94272 296.788 9.30954 296.012 10.8138 295.813C13.0335 295.612 15.2613 296.099 17.193 297.206C19.399 298.247 21.7414 299.753 24.4022 300.206C25.7087 300.432 27.0522 300.303 28.2911 299.833C29.4625 299.373 30.586 298.8 31.6455 298.123C33.4376 296.841 35.5049 295.992 37.6836 295.643C38.4249 295.577 39.1719 295.666 39.8768 295.903C40.5818 296.141 41.229 296.523 41.7771 297.025C42.0654 297.309 42.3003 297.643 42.4708 298.01C42.5461 298.136 42.5999 298.274 42.63 298.417Z" fill="#263238"/>
<path d="M11.5529 298.349C11.5529 298.281 11.8713 298.078 12.292 298.417C12.4192 298.526 12.51 298.672 12.5527 298.833C12.5953 298.995 12.5877 299.166 12.5308 299.323C12.4608 299.517 12.3296 299.683 12.1569 299.796C11.9841 299.909 11.7791 299.963 11.5728 299.951C11.3664 299.938 11.1697 299.859 11.0124 299.725C10.855 299.592 10.7454 299.411 10.7001 299.21C10.6601 299.055 10.6633 298.891 10.7094 298.738C10.7555 298.584 10.8427 298.446 10.9616 298.338C11.371 297.998 11.7235 298.157 11.7007 298.225C11.678 298.293 11.4506 298.349 11.28 298.621C11.2432 298.689 11.2239 298.765 11.2239 298.842C11.2239 298.919 11.2432 298.995 11.28 299.063C11.3133 299.142 11.3662 299.212 11.4338 299.265C11.5014 299.318 11.5815 299.354 11.6666 299.368C11.7506 299.365 11.8324 299.341 11.9041 299.297C11.9758 299.254 12.035 299.192 12.076 299.119C12.114 299.056 12.1342 298.984 12.1342 298.91C12.1342 298.836 12.114 298.764 12.076 298.7C11.8258 298.44 11.5643 298.429 11.5529 298.349Z" fill="#263238"/>
<path d="M25.1186 294.047C25.1186 293.979 25.437 293.764 25.8691 294.115C25.9917 294.227 26.0786 294.373 26.119 294.534C26.1594 294.695 26.1516 294.864 26.0965 295.02C26.0247 295.213 25.8937 295.378 25.7222 295.492C25.5506 295.606 25.3473 295.663 25.1413 295.654C24.9358 295.635 24.7413 295.553 24.5846 295.419C24.4278 295.285 24.3165 295.106 24.2658 294.907C24.2245 294.751 24.2282 294.586 24.2765 294.432C24.3247 294.278 24.4156 294.14 24.5387 294.035C24.948 293.696 25.3005 293.854 25.2664 293.922C25.2323 293.99 25.0162 294.047 24.8457 294.318C24.8116 294.387 24.7939 294.463 24.7939 294.539C24.7939 294.616 24.8116 294.691 24.8457 294.76C24.879 294.839 24.9319 294.909 24.9995 294.962C25.0671 295.016 25.1472 295.051 25.2323 295.066C25.3165 295.064 25.3988 295.04 25.4707 294.996C25.5426 294.952 25.6016 294.89 25.6417 294.817C25.681 294.754 25.7018 294.681 25.7018 294.607C25.7018 294.533 25.681 294.461 25.6417 294.398C25.3915 294.137 25.13 294.126 25.1186 294.047Z" fill="#263238"/>
<path d="M38.2748 298.542C38.2748 298.474 38.5932 298.27 39.0253 298.61C39.148 298.722 39.2348 298.868 39.2753 299.029C39.3157 299.19 39.3078 299.359 39.2527 299.516C39.181 299.708 39.05 299.873 38.8784 299.987C38.7069 300.101 38.5036 300.158 38.2976 300.15C38.0935 300.131 37.9001 300.05 37.7435 299.919C37.5869 299.787 37.4747 299.611 37.422 299.414C37.3812 299.256 37.385 299.09 37.4332 298.934C37.4814 298.778 37.572 298.638 37.6949 298.53C38.1043 298.191 38.4568 298.349 38.4227 298.417C38.3885 298.485 38.1725 298.553 38.0019 298.814C37.9541 298.881 37.9245 298.959 37.9161 299.041C37.9077 299.122 37.9208 299.205 37.954 299.28C37.9872 299.356 38.0395 299.421 38.1057 299.47C38.1719 299.519 38.2497 299.551 38.3317 299.561C38.4159 299.559 38.4982 299.535 38.57 299.491C38.6419 299.447 38.7009 299.386 38.741 299.312C38.7803 299.249 38.8012 299.176 38.8012 299.102C38.8012 299.028 38.7803 298.956 38.741 298.893C38.5477 298.644 38.2976 298.621 38.2748 298.542Z" fill="#263238"/>
<path d="M384.409 273.077L388.309 313.363H408.026L412.745 273.077H384.409Z" fill="#455A64"/>
<path d="M384.409 267.868C383.195 269.377 382.541 271.257 382.555 273.19H414.599C414.755 272.219 414.667 271.226 414.344 270.297C414.02 269.369 413.471 268.534 412.745 267.868H384.409Z" fill="#263238"/>
<path d="M388.059 264.177L386.979 268.163L411.165 268.344L409.562 264.132L388.059 264.177Z" fill="#263238"/>
<path d="M384.045 283.165C384.045 283.539 386.319 303.479 386.319 303.479H410.414L412.689 283.199L384.045 283.165Z" fill="#EE4248"/>
</svg>
